<svg xmlns="http://www.w3.org/2000/svg" width="549" height="169.5" viewBox="0 0 549 169.5"><g fill="none" stroke="#4D4D4D" stroke-width="2" stroke-miterlimit="10"><path d="M29.2 125.3c-18.9-4.5-24.1-11.8-23.5-17.9.5-6 118.7-44.7 162.8-51.2 16.3-2.4 53.1-49.3 105.8-49.3h.5c52.7 0 89.4 47.9 105.8 49.3 36 3.1 73 12.3 93.5 18.3 20.3 5.9 68.8 27.1 69.3 33.1.5 6.1-2.8 12.8-21.5 17.9-37.5 10.1-155 32.1-246.5 32.1-95-.2-204-22.2-246.2-32.3z"/><ellipse cx="278.6" cy="118.4" rx="26.2" ry="14.5"/><ellipse transform="rotate(-5.814 365.802 111.437)" cx="365.6" cy="111.4" rx="24.2" ry="14"/><path d="M470.3 93.2c1.7 7.6-7.6 16-20.7 18.9-13.1 2.9-25-.9-26.7-8.5-1.7-7.6 7.6-16 20.7-18.9 13.1-2.9 25.1.9 26.7 8.5z"/><ellipse transform="rotate(7.747 191.687 111.425)" cx="191.6" cy="111.4" rx="24.2" ry="14"/><ellipse transform="rotate(9.87 113.669 95.437)" cx="113.6" cy="95.4" rx="24.2" ry="14"/><path d="M378.9 55.9c-9 12-76 19-103 19-22.1 0-100.1-11.2-104.1-20.2M4.9 106.9v1.5c0 6.1 7.1 19.4 25.9 23.9 42.2 10.1 151.4 32.1 246.4 32.1 91.5 0 209.1-22 246.6-32.1 18.7-5 19.9-17.8 19.3-23.9"/></g></svg>